<?xml version="1.0" standalone="no"?>
<!DOCTYPE svg PUBLIC "-//W3C//DTD SVG 20010904//EN"
 "http://www.w3.org/TR/2001/REC-SVG-20010904/DTD/svg10.dtd">
<svg version="1.0" xmlns="http://www.w3.org/2000/svg"
 width="928.000000pt" height="904.000000pt" viewBox="0 0 928.000000 904.000000"
 preserveAspectRatio="xMidYMid meet">

<g transform="translate(0.000000,904.000000) scale(0.100000,-0.100000)"
fill="#000000" stroke="none">
<path d="M4430 8394 c-41 -2 -104 -8 -140 -13 -261 -40 -376 -61 -445 -81 -16
-5 -46 -11 -65 -15 -19 -3 -46 -10 -60 -15 -14 -5 -52 -16 -85 -25 -119 -34
-351 -114 -425 -146 -14 -6 -38 -17 -55 -24 -95 -41 -338 -167 -443 -230 -80
-48 -263 -175 -332 -230 -156 -125 -204 -167 -360 -324 -173 -175 -204 -208
-275 -301 -28 -35 -55 -71 -62 -80 -123 -157 -299 -442 -399 -645 -78 -157
-106 -223 -178 -412 -25 -66 -62 -176 -81 -238 -9 -33 -22 -73 -27 -90 -6 -16
-14 -46 -18 -65 -5 -19 -15 -66 -24 -105 -92 -402 -123 -799 -96 -1194 15
-213 49 -465 80 -591 5 -19 16 -66 25 -105 9 -38 23 -90 30 -115 25 -83 76
-245 84 -265 5 -11 16 -40 26 -65 10 -25 23 -58 31 -75 7 -16 20 -48 30 -70
23 -54 129 -271 157 -320 125 -223 284 -462 381 -573 13 -15 52 -61 86 -102
96 -117 324 -345 451 -451 102 -85 401 -309 413 -309 3 0 24 -13 48 -29 24
-15 70 -43 103 -61 33 -18 76 -42 95 -53 85 -48 252 -129 335 -162 50 -20 99
-40 110 -44 59 -24 82 -33 138 -51 34 -11 78 -25 97 -32 36 -11 64 -19 160
-43 203 -50 312 -72 433 -85 49 -6 93 -12 98 -15 19 -12 426 -22 600 -14 182
7 255 15 429 45 211 37 330 67 580 147 49 16 173 62 205 76 11 5 56 24 100 42
44 19 100 44 125 58 25 13 74 39 110 58 277 146 646 419 857 635 l62 63 -202
375 c-111 206 -206 380 -210 387 -5 8 -59 -40 -155 -136 -160 -160 -250 -237
-382 -322 -87 -57 -327 -179 -352 -179 -8 0 -18 -4 -23 -8 -9 -7 -53 -22 -170
-56 -107 -31 -230 -39 -453 -32 -381 12 -873 36 -1182 57 -85 6 -218 15 -295
20 -128 8 -326 24 -609 48 -124 11 -206 28 -206 44 0 7 70 8 228 4 514 -15
1032 -20 1032 -10 0 14 -82 23 -203 23 -54 0 -128 5 -165 10 -65 10 -245 21
-667 40 -110 5 -243 14 -295 19 -52 6 -136 11 -187 11 -89 0 -127 11 -80 24
35 9 210 7 337 -5 63 -5 207 -14 320 -19 270 -12 498 -28 588 -41 40 -6 144
-15 230 -20 86 -5 182 -13 212 -18 30 -5 83 -10 117 -10 34 -1 65 -5 68 -11 3
-5 17 -10 30 -10 13 0 27 5 30 10 3 6 -3 10 -15 10 -12 0 -38 9 -58 20 -20 10
-85 42 -145 70 -314 151 -701 532 -942 930 -67 111 -182 345 -219 450 -15 41
-32 86 -38 100 -28 69 -92 327 -111 450 -43 275 -47 329 -47 617 0 205 4 321
15 403 25 179 53 333 80 430 7 25 20 74 30 110 17 64 40 136 55 175 98 252
174 404 309 610 224 344 504 624 808 808 195 118 349 180 583 237 70 16 223
30 348 30 325 0 559 -63 913 -247 302 -157 605 -433 799 -728 29 -44 61 -92
71 -107 11 -15 19 -30 19 -32 0 -3 17 -34 38 -68 20 -35 50 -90 66 -123 57
-118 104 -221 126 -275 12 -30 26 -63 31 -72 5 -10 9 -23 9 -29 0 -6 6 -25 13
-42 32 -75 43 -110 90 -292 89 -339 117 -554 117 -883 0 -210 -50 -589 -91
-690 -5 -13 -9 -31 -9 -40 0 -22 -78 -273 -105 -337 -38 -92 -39 -96 -24 -109
8 -7 162 -131 343 -276 l329 -263 18 24 c10 13 19 27 19 30 0 4 21 51 46 105
51 110 50 108 92 214 33 83 100 282 126 375 9 33 21 74 25 90 67 233 121 647
121 920 0 186 -32 519 -67 695 -31 159 -129 526 -162 605 -5 11 -23 58 -41
105 -32 86 -39 103 -81 200 -113 261 -328 619 -531 884 -181 236 -573 620
-758 742 -19 13 -66 46 -105 74 -38 27 -77 53 -85 57 -8 4 -39 23 -70 43 -106
70 -339 191 -490 254 -107 45 -372 137 -445 155 -78 18 -211 52 -250 63 -22 6
-65 14 -95 18 -116 17 -207 31 -268 40 -64 11 -517 20 -652 14z m-601 -1493
c18 -12 4 -35 -61 -98 -78 -75 -97 -80 -413 -88 -246 -7 -272 -6 -285 9 -12
15 -7 24 46 77 80 82 102 92 214 99 148 10 484 11 499 1z m-949 -862 c331 -14
328 -12 266 -153 -35 -82 -50 -98 -106 -113 -48 -13 -627 12 -657 28 -33 18
-29 56 12 143 55 116 44 114 485 95z m-243 -1095 c132 -9 150 -36 133 -198
-10 -96 -27 -131 -73 -145 -20 -5 -158 -7 -354 -3 -304 7 -323 8 -349 28 -38
28 -47 70 -35 174 18 158 14 157 343 153 139 -2 290 -6 335 -9z m226 -1266
c40 -15 54 -51 62 -156 9 -106 0 -134 -49 -159 -25 -13 -71 -14 -340 -8 -335
7 -342 9 -370 63 -21 41 -25 211 -6 238 32 44 39 45 365 39 182 -4 322 -11
338 -17z m304 -1043 c123 -8 231 -19 240 -24 46 -24 61 -55 118 -238 3 -7 -6
-23 -18 -36 l-22 -24 -278 17 -278 17 -34 33 c-27 26 -41 55 -64 129 -27 87
-29 98 -15 118 18 28 37 29 351 8z"/>
<path d="M5415 5925 c-44 -7 -98 -18 -120 -24 -81 -24 -204 -89 -275 -146 -82
-65 -237 -239 -263 -295 -4 -8 -21 -37 -37 -65 -85 -143 -149 -323 -179 -500
-5 -27 -15 -70 -22 -95 -19 -64 -19 -601 0 -685 7 -33 17 -80 21 -105 8 -53
29 -136 41 -165 4 -11 17 -49 29 -85 133 -404 498 -754 820 -785 122 -12 139
-12 207 0 340 61 621 375 757 845 63 221 86 386 86 626 0 318 -44 561 -150
829 -58 145 -170 323 -260 413 -142 143 -271 215 -431 241 -79 13 -120 13
-224 -4z"/>
</g>
</svg>
